<?xml version="1.0" encoding="iso-8859-1"?>
<!-- Generator: Adobe Illustrator 16.0.0, SVG Export Plug-In . SVG Version: 6.00 Build 0)  -->
<!DOCTYPE svg PUBLIC "-//W3C//DTD SVG 1.1//EN" "http://www.w3.org/Graphics/SVG/1.1/DTD/svg11.dtd">
<svg xmlns="http://www.w3.org/2000/svg" xmlns:xlink="http://www.w3.org/1999/xlink" version="1.1" id="Capa_1" x="0px" y="0px" width="512px" height="512px" viewBox="0 0 499.789 499.789" style="enable-background:new 0 0 499.789 499.789;" xml:space="preserve">
<g>
	<g>
		<path d="M188.495,189.045c0-51.967-42.279-94.246-94.247-94.246C42.28,94.799,0,137.079,0,189.045    c0,15.229,3.635,29.623,10.075,42.367L94.247,404.99l84.184-173.604C184.865,218.649,188.495,204.264,188.495,189.045z     M94.248,241.202c-28.759,0-52.158-23.397-52.158-52.156c0-28.758,23.399-52.156,52.158-52.156    c28.758,0,52.155,23.398,52.155,52.156C146.403,217.804,123.005,241.202,94.248,241.202z" fill="#FFDA44"/>
		<path d="M442.549,97.469c-31.564,0-57.24,25.679-57.24,57.241c0,9.249,2.207,17.991,6.119,25.731l51.121,105.422l51.129-105.438    c3.906-7.737,6.111-16.474,6.111-25.716C499.789,123.148,474.111,97.469,442.549,97.469z M442.549,186.387    c-17.467,0-31.68-14.211-31.68-31.677c0-17.466,14.213-31.677,31.68-31.677c17.465,0,31.676,14.211,31.676,31.677    C474.225,172.176,460.014,186.387,442.549,186.387z" fill="#FFDA44"/>
		<polygon points="250.162,256.986 240.382,256.814 235.476,266.984 193.509,353.98 132.624,352.648 107.244,404.99     208.494,402.777 226.397,402.385 231.042,387.424 261.807,288.35 431.311,285.385 418.971,259.939   " fill="#FFDA44"/>
	</g>
</g>
<g>
</g>
<g>
</g>
<g>
</g>
<g>
</g>
<g>
</g>
<g>
</g>
<g>
</g>
<g>
</g>
<g>
</g>
<g>
</g>
<g>
</g>
<g>
</g>
<g>
</g>
<g>
</g>
<g>
</g>
</svg>
